<svg xmlns="http://www.w3.org/2000/svg" version="1.1" xmlns:xlink="http://www.w3.org/1999/xlink" xmlns:svgjs="http://svgjs.com/svgjs" width="512" height="512" x="0" y="0" viewBox="0 0 480 480" style="enable-background:new 0 0 512 512" xml:space="preserve" class=""><g><g data-name="Layer 2"><g data-name="19.number_18"><rect width="480" height="480" fill="#ff7600" rx="240" data-original="#d50000" class=""></rect><g fill="#fff"><path d="M196.35 135v210h-48V185.7l-37.2 10.2-11.7-41.1 54.9-19.8zM380.55 285.9c0 38.4-27.6 63.3-77.1 63.3s-77.1-24.9-77.1-63.3c0-20.7 9.6-39 27.3-50.4-12.3-9.6-20.1-23.4-20.1-42.3 0-40.8 31.2-62.4 69.9-62.4s69.9 21.6 69.9 62.4c0 18.9-7.8 32.7-20.1 42.3 17.75 11.4 27.3 29.7 27.3 50.4zm-48-6.9c0-15.9-12.3-25.2-29.1-25.2s-29.1 9.3-29.1 25.2 12.3 25.2 29.1 25.2 29.1-9.3 29.1-25.2zm-51-82.8c0 11.7 8.4 20.4 21.9 20.4s21.9-8.7 21.9-20.4-8.4-20.4-21.9-20.4-21.9 8.7-21.9 20.4z" fill="#ffffff" data-original="#ffffff"></path></g></g></g></g></svg>