<svg width="32" height="32" viewBox="0 0 32 32" fill="none" xmlns="http://www.w3.org/2000/svg">
<path d="M22.5113 13.991C22.5113 14.7296 21.8866 15.3284 21.116 15.3284C20.3454 15.3284 19.7207 14.7296 19.7207 13.991C19.7207 13.2523 20.3454 12.6535 21.116 12.6535C21.8866 12.6535 22.5113 13.2523 22.5113 13.991Z" fill="#45BD62"/>
<path fill-rule="evenodd" clip-rule="evenodd" d="M22.036 9.44645C20.9763 9.30989 19.6222 9.3099 17.9127 9.30991H14.0869C12.3774 9.3099 11.0233 9.30989 9.96362 9.44645C8.87302 9.587 7.99029 9.88313 7.29416 10.5504C6.59802 11.2177 6.28908 12.0638 6.14245 13.1091C5.99997 14.1249 5.99999 15.4228 6 17.0614V17.162C5.99999 18.8006 5.99997 20.0985 6.14245 21.1143C6.28908 22.1597 6.59802 23.0058 7.29416 23.673C7.99029 24.3403 8.87302 24.6364 9.96362 24.777C11.0233 24.9135 12.3774 24.9135 14.0869 24.9135H17.9127C19.6222 24.9135 20.9763 24.9135 22.036 24.777C23.1266 24.6364 24.0093 24.3403 24.7055 23.673C25.4016 23.0058 25.7105 22.1597 25.8572 21.1143C25.9996 20.0985 25.9996 18.8006 25.9996 17.162V17.0614C25.9996 15.4228 25.9996 14.1249 25.8572 13.1091C25.7105 12.0638 25.4016 11.2177 24.7055 10.5504C24.0093 9.88313 23.1266 9.587 22.036 9.44645ZM10.1495 10.772C9.21367 10.8926 8.67447 11.1188 8.2808 11.4961C7.88712 11.8735 7.65115 12.3903 7.52533 13.2874C7.4244 14.0069 7.40182 14.9062 7.39677 16.0825L7.8676 15.6876C8.9917 14.7448 10.6859 14.7989 11.742 15.8113L15.7324 19.6362C16.132 20.0191 16.7609 20.0713 17.2232 19.7599L17.5006 19.5731C18.8311 18.6768 20.6311 18.7806 21.8399 19.8234L24.2475 21.9004C24.3459 21.6364 24.4203 21.3213 24.4743 20.9361C24.6028 20.0198 24.6043 18.8119 24.6043 17.1117C24.6043 15.4115 24.6028 14.2037 24.4743 13.2874C24.3485 12.3903 24.1125 11.8735 23.7188 11.4961C23.3251 11.1188 22.7859 10.8926 21.8501 10.772C20.8941 10.6488 19.634 10.6474 17.8602 10.6474H14.1394C12.3656 10.6474 11.1055 10.6488 10.1495 10.772Z" fill="#45BD62"/>
<path d="M21.086 6.52445C20.2262 6.41403 19.1316 6.41405 17.767 6.41406H14.6773C13.3127 6.41405 12.218 6.41403 11.3582 6.52445C10.4679 6.63879 9.72554 6.8824 9.13676 7.44479C8.7972 7.76914 8.56851 8.14236 8.41274 8.5633C8.91693 8.33331 9.48697 8.19777 10.127 8.11487C11.2113 7.9744 12.5969 7.97441 14.3461 7.97442H18.2609C20.0102 7.97441 21.3957 7.9744 22.4801 8.11487C23.0391 8.18728 23.5447 8.29983 23.9997 8.48041C23.845 8.0932 23.6246 7.74769 23.3075 7.44479C22.7187 6.8824 21.9764 6.63879 21.086 6.52445Z" fill="#45BD62"/>
</svg>
